PathFileType	3	(X/Y/Z)	D:\Vicon Setup\UG\Test1\New Session\NewSession15.trc
DataRate	CameraRate	NumFrames	NumMarkers	Units	OrigDataRate	OrigDataStartFrame	OrigNumFrames
100.0	100.0	11	27	mm	100.0	586	359	
Frame#	Time	Sternum			LShoulder			RShoulder			LASIS			RASIS			RPSIS			LPSIS			RKneeLateral			RKneeMedial			RFibulaHead			RMidShank			RAnkleLateral			RAnkleMedial			RHeel			RMT5			RMT2			RToe			LKneeLateral			LKneeMedial			LFibulaHead			LMidShank			LAnkleLateral			LAnkleMedial			LHeel			LMT5			LMT2			LToe			
		X1	Y1	Z1	X2	Y2	Z2	X3	Y3	Z3	X4	Y4	Z4	X5	Y5	Z5	X6	Y6	Z6	X7	Y7	Z7	X8	Y8	Z8	X9	Y9	Z9	X10	Y10	Z10	X11	Y11	Z11	X12	Y12	Z12	X13	Y13	Z13	X14	Y14	Z14	X15	Y15	Z15	X16	Y16	Z16	X17	Y17	Z17	X18	Y18	Z18	X19	Y19	Z19	X20	Y20	Z20	X21	Y21	Z21	X22	Y22	Z22	X23	Y23	Z23	X24	Y24	Z24	X25	Y25	Z25	X26	Y26	Z26	X27	Y27	Z27	
586	5.85	-484.15506	1369.1204	139.12816	-268.9411	1441.7629	153.88394	-583.94366	1393.9528	-40.058182	-344.87738	995.45465	199.94437	-563.12354	1001.8864	59.466652	-406.01697	1009.4586	-48.281075	-296.15302	1008.2703	21.394838	-570.73712	517.83057	25.322769	-461.93188	498.19882	98.414192	-568.56152	436.12726	11.822651	-472.84366	279.16797	19.309671	-478.88443	106.89503	-103.40808	-420.33633	128.46588	-27.779348	-400.1434	85.598	-153.94223	-564.38788	33.027397	15.299436	-505.1319	57.146938	44.357319	-518.8678	40.636955	82.653091	-326.29953	521.89203	279.12427	-427.58875	487.82874	200.35555	-310.42154	460.21475	282.28824	-380.74884	299.05203	266.70651	-291.05203	98.459335	296.14648	-370.86313	116.56533	253.43604	-264.66196	62.170158	213.25676	-374.45773	39.106583	414.63535	-425.80093	63.914581	368.75092	-463.14999	51.806206	386.69421
587	5.86	-482.4791	1369.9432	142.98201	-267.37787	1441.6825	159.66628	-580.31006	1394.3563	-37.536602	-345.34891	996.29431	206.60168	-562.09869	1002.1565	63.100426	-403.82278	1009.2596	-42.49057	-294.71652	1008.4207	28.428164	-571.4071	518.59283	27.651985	-463.2587	498.10428	102.7389	-568.96265	436.82114	14.050681	-472.96625	279.97031	21.056833	-479.13867	107.92194	-102.68289	-421.11084	129.20375	-26.738813	-400.51801	87.438934	-153.17101	-564.63324	32.859692	15.300427	-505.306	57.347366	44.425404	-519.37006	41.091728	82.762329	-326.74371	522.86206	282.88892	-429.569	488.26089	205.97627	-311.84573	460.80011	287.12451	-382.01562	300.2171	269.3822	-291.57785	98.416481	296.38913	-371.85254	116.49084	253.46396	-264.83536	62.342541	213.33606	-374.17194	38.910416	414.86755	-426.16016	63.479706	368.89157	-463.67072	50.633217	387.33438
588	5.87	-480.84698	1371.3478	146.74303	-265.88464	1442.0861	165.5905	-577.03265	1395.2781	-35.135986	-346.20233	997.64612	212.95702	-561.18701	1002.7018	66.767639	-401.75528	1009.3075	-36.864132	-293.53653	1008.9425	35.201714	-571.5799	519.29993	30.201735	-464.20966	497.17136	106.9343	-569.36652	437.67126	16.219976	-473.41727	280.82452	22.54035	-479.33664	109.08018	-101.85172	-421.6098	130.0058	-25.705479	-400.48807	89.368782	-152.2108	-565.08868	33.068821	15.643811	-506.07263	58.037586	44.898678	-519.13086	40.535652	82.97171	-326.6507	523.31915	287.07812	-430.10452	490.27887	210.46095	-311.77921	461.36844	289.86765	-382.49277	300.06876	271.13702	-291.83484	98.91964	296.62338	-372.08826	116.88103	253.59708	-264.99805	62.702248	213.36133	-374.108	38.827526	414.97589	-426.41742	62.755325	369.27161	-463.71539	49.82991	387.95383
589	5.88	-480.36212	1373.2401	150.48706	-264.58295	1442.6814	171.68478	-573.58282	1396.463	-32.632229	-347.23251	998.68866	219.22098	-561.69788	1004.5928	71.191788	-399.83255	1009.5413	-31.434891	-292.55756	1009.7607	41.770966	-571.78741	520.04327	32.765064	-465.59192	497.15491	111.14153	-569.74078	438.69955	18.348713	-474.17932	281.6572	24.399786	-479.46762	110.34817	-100.94072	-422.1055	130.95973	-24.441664	-400.63565	91.625069	-151.19382	-565.06409	32.646168	15.580863	-506.60974	57.928177	45.467236	-519.41748	40.661816	82.963455	-327.94873	523.42212	291.81705	-431.04959	492.8287	214.36775	-314.39941	460.91135	295.14423	-382.87109	300.14056	272.42557	-292.43942	99.082779	297.13596	-372.48212	117.05563	253.73268	-265.18149	62.991253	213.29189	-374.26242	38.780003	415.17676	-426.65179	62.388344	369.36182	-463.90472	49.452122	388.14261
590	5.89	-478.83728	1374.3042	154.16801	-263.54352	1443.5414	177.83388	-570.02466	1397.8844	-30.13961	-347.96817	1000.1539	225.19849	-559.78522	1004.4031	74.327553	-397.85422	1009.907	-26.13344	-291.51474	1010.8124	48.236168	-571.85468	521.2226	35.061119	-470.4158	498.6857	117.16669	-570.16882	439.82397	20.480997	-474.97546	282.58163	26.256435	-479.63678	111.69264	-100.02364	-423.3927	131.74986	-23.029116	-401.05237	94.048332	-149.99446	-565.11237	32.339188	15.698153	-506.71381	57.752151	45.610558	-519.43512	40.7328	83.076813	-329.1814	523.45605	295.96686	-431.92621	495.49911	218.04364	-315.36411	461.06644	298.88452	-383.25354	300.16083	273.49475	-292.60904	99.318405	297.35251	-372.73041	117.18631	253.76826	-265.32361	63.072777	213.47008	-374.31616	38.68264	415.19424	-426.67624	61.927799	369.4628	-463.97705	49.026539	388.40536
591	5.9	-477.8613	1375.632	157.73039	-262.45078	1444.3589	184.03639	-566.4043	1399.4301	-27.671515	-348.53452	1001.6769	231.11111	-558.26288	1005.0165	77.415237	-395.72794	1010.4216	-20.858168	-290.39246	1011.9617	54.744263	-572.19464	522.36145	37.378357	-470.88266	498.50433	119.74637	-571.09601	441.15656	22.459013	-475.93695	283.59946	28.000711	-479.95053	113.11484	-99.04464	-423.8721	133.00359	-21.979641	-401.35803	96.750938	-149.03281	-565.30841	32.176613	15.649501	-507.17914	57.66153	45.995922	-519.57587	41.058876	82.946938	-329.71957	523.33862	299.55539	-431.24969	496.70016	220.28369	-315.90939	461.00977	301.94449	-383.52667	300.33472	274.46918	-292.87527	99.686111	297.3143	-372.78256	117.30041	253.82721	-265.37497	63.335331	213.36911	-374.40756	38.459911	415.33011	-427.6976	62.438686	369.66681	-464.3475	49.104095	388.4924
592	5.91	-477.43127	1376.9243	161.3107	-261.91891	1445.4541	190.51187	-562.85254	1401.1223	-25.303391	-348.96014	1003.4696	236.8725	-556.64233	1005.9892	80.631416	-393.43921	1011.012	-15.57242	-289.13135	1013.0164	61.214863	-572.49652	523.7356	39.653412	-472.25861	499.2319	123.18397	-571.38568	442.66037	24.302523	-477.36343	284.53012	29.82103	-480.42981	114.57693	-98.13678	-424.96213	134.10179	-20.747511	-401.76465	99.264618	-147.8394	-565.5061	31.977247	15.594276	-507.18976	57.430069	46.346306	-519.67242	41.14402	82.933807	-329.91476	523.42908	302.59076	-430.34698	497.39447	221.96201	-316.77026	461.07153	305.1525	-383.25058	300.83194	275.2128	-292.92728	99.422722	297.81369	-372.8287	117.42393	253.90944	-265.41046	63.383518	213.45235	-374.34213	38.638218	415.22256	-427.57004	62.31916	369.54556	-464.5329	49.025146	388.59116
593	5.92	-475.70056	1377.8584	164.74725	-261.32532	1446.2444	196.93352	-559.04553	1402.5116	-22.858566	-349.85901	1005.0907	243.00687	-554.93201	1006.902	83.75042	-390.97559	1011.6738	-10.270018	-287.66516	1014.1041	67.798515	-573.00195	525.12415	42.001171	-473.89645	499.79327	126.52525	-571.8949	444.16946	26.033735	-478.25513	285.61523	31.190092	-481.00735	115.90194	-97.24176	-425.97348	134.82191	-20.330954	-402.32986	101.70749	-146.68571	-565.66705	31.632166	15.552153	-507.68781	57.037506	46.87315	-519.88574	41.164463	83.019882	-329.69815	523.16425	305.06384	-429.28424	497.77783	223.04335	-316.35431	460.54474	306.55392	-382.5419	300.33191	276.06647	-293.46951	99.10939	297.87292	-372.88138	117.50642	253.89758	-265.33585	63.371861	213.4379	-374.40457	38.692322	415.19281	-427.58075	62.105259	369.50656	-464.44016	48.668056	388.67917
594	5.93	-475.10852	1378.6482	168.45245	-260.86023	1447.1667	203.48941	-555.3717	1403.8644	-20.521791	-350.11356	1006.0734	249.13521	-552.70953	1007.5915	86.919739	-388.21848	1012.3174	-4.8886814	-286.12592	1015.0205	74.640099	-573.22662	526.59344	43.956974	-475.52924	500.35803	129.72786	-572.43988	445.68771	27.480608	-479.69727	286.5842	32.166111	-481.85742	117.29525	-96.576103	-427.57037	135.80469	-19.497154	-402.98657	103.97668	-145.63647	-566.25177	31.761368	15.420866	-508.3071	57.088108	47.104008	-520.26434	41.852398	82.838646	-329.28775	522.86212	306.72687	-428.2562	497.95441	223.85294	-315.15137	460.42026	307.47922	-382.76047	300.87253	276.79315	-293.52261	99.306511	297.72635	-373.10556	117.57419	253.72893	-265.61038	63.521057	213.21912	-374.45288	38.74054	415.15866	-427.43967	61.855217	369.28995	-464.6467	48.320328	388.93655
595	5.94	-474.08578	1379.6162	171.94547	-260.92856	1448.2059	210.16606	-551.67096	1405.0016	-18.196684	-350.2063	1006.8697	255.08693	-551.92053	1009.2266	90.31459	-385.34973	1013.0254	0.49628866	-284.37726	1015.9551	81.279785	-573.42621	527.9668	45.643932	-476.53693	500.45908	132.40302	-572.98187	447.21384	28.790276	-481.69763	286.85568	33.352234	-482.67151	118.44349	-95.930588	-428.88156	136.9716	-18.415649	-403.79465	106.09328	-144.76196	-566.22778	31.388227	15.399229	-508.78543	57.204521	47.211266	-520.11218	41.812584	82.754944	-328.42175	522.53668	307.7894	-427.20319	498.21381	224.43706	-314.44568	460.12497	308.65396	-382.32611	300.54993	277.10556	-293.49057	99.677017	297.40109	-373.3577	117.45677	253.54478	-265.71909	63.465088	213.19792	-374.2388	38.991882	415.01871	-427.57996	61.401203	369.49551	-464.56958	48.236092	388.73315
596	5.95	-473.35806	1380.507	175.4478	-260.96371	1448.9116	217.10632	-548.18866	1406.0063	-16.023163	-351.3111	1007.8616	261.05182	-550.11206	1010.0931	93.319885	-382.33655	1013.7441	5.856132	-282.69836	1016.687	88.252846	-573.33594	529.13141	47.240356	-477.32773	500.21924	134.87978	-573.4519	448.68564	29.891998	-482.71344	287.91925	34.527412	-483.30087	119.28018	-95.242599	-430.44189	138.26541	-17.406391	-404.62643	108.04423	-143.98988	-566.39203	31.053932	15.520934	-509.47958	57.418507	47.621197	-519.97162	42.108364	82.452614	-327.62009	522.5484	308.75717	-426.06247	498.61572	224.66075	-313.21143	459.83261	309.10706	-381.75488	300.17981	277.44519	-293.66595	99.425377	297.47351	-373.46378	117.34608	253.27769	-265.73047	63.374229	213.12843	-374.43384	39.168613	414.95404	-427.18283	61.125126	369.3064	-464.59705	48.077526	388.69989
